<svg width="168" height="173" viewBox="0 0 168 173" fill="none" xmlns="http://www.w3.org/2000/svg">
<g clip-path="url(#clip0)">
<path d="M128.411 0H114.199V172.993H128.411V0Z" fill="url(#paint0_linear)"></path>
<path d="M86.9368 129.529H136.677V141.706C136.677 142.411 136.402 143.087 135.912 143.585C135.423 144.084 134.759 144.363 134.067 144.363H101.438C97.573 144.363 93.866 142.801 91.1329 140.018C88.3997 137.236 86.8643 133.463 86.8643 129.529V129.529H86.9368Z" fill="url(#paint1_linear)"></path>
<path d="M109.922 144.216H132.472V148.939C132.472 149.233 132.357 149.515 132.153 149.722C131.949 149.93 131.673 150.047 131.384 150.047H111.009C110.721 150.047 110.444 149.93 110.24 149.722C110.036 149.515 109.922 149.233 109.922 148.939V144.216Z" fill="#344563"></path>
<path d="M117.97 31.9578H77.3656C64.2828 31.8651 51.6701 36.9183 42.1593 46.0631C32.6484 55.2078 26.9741 67.7378 26.3202 81.0384C26.1092 86.2563 26.6465 91.4776 27.9154 96.5376C28.2913 98.0425 28.3241 99.615 28.0114 101.135C27.6987 102.655 27.0487 104.082 26.1112 105.307C25.1736 106.531 23.9734 107.522 22.6021 108.202C21.2308 108.883 19.7249 109.235 18.1994 109.232H8.84592C8.25905 109.238 7.68936 109.434 7.21984 109.793C6.75032 110.151 6.40551 110.653 6.23565 111.225L0 132.776C0 133.324 0.213897 133.85 0.594635 134.237C0.975374 134.625 1.49177 134.843 2.03021 134.843H116.81C144.508 134.843 167.637 112.406 168 84.1383C168.086 77.3668 166.86 70.6444 164.391 64.3558C161.923 58.0671 158.26 52.3356 153.614 47.4892C148.967 42.6427 143.427 38.7763 137.311 36.1113C131.195 33.4463 124.622 32.0348 117.97 31.9578V31.9578Z" fill="url(#paint2_linear)"></path>
<path d="M116.52 31.9578C103.629 32.2459 91.3288 37.5173 82.1175 46.7016C72.9062 55.8858 67.4742 68.2944 66.9247 81.4074C66.7733 86.5058 67.3348 91.6001 68.5924 96.5376C68.6056 96.7654 68.6546 96.9897 68.7374 97.2018C69.8975 103.475 64.8945 109.232 58.6589 109.232H49.5229C48.9361 109.238 48.3664 109.434 47.8968 109.793C47.4273 110.151 47.0825 110.653 46.9126 111.225L40.6045 132.776C40.6043 133.054 40.6591 133.329 40.7657 133.584C40.8722 133.84 41.0283 134.071 41.2245 134.264C41.4208 134.457 41.6533 134.608 41.908 134.707C42.1627 134.806 42.4346 134.853 42.7072 134.843H116.81C144.508 134.843 167.638 112.406 168 84.1382C168.099 77.2394 166.833 70.3908 164.278 64.0002C161.723 57.6095 157.931 51.8073 153.128 46.9389C148.325 42.0705 142.608 38.2354 136.319 35.6617C130.03 33.088 123.297 31.8284 116.52 31.9578V31.9578Z" fill="url(#paint3_linear)"></path>
<path d="M152.339 46.2022L78.816 121.041H44.0849L40.6045 132.776C40.6043 133.054 40.6591 133.329 40.7657 133.584C40.8722 133.84 41.0283 134.071 41.2245 134.264C41.4208 134.457 41.6533 134.608 41.908 134.707C42.1627 134.806 42.4346 134.852 42.7072 134.843H116.81C144.508 134.843 167.638 112.406 168 84.1382C168.104 77.0569 166.766 70.0305 164.07 63.5015C161.375 56.9725 157.381 51.0824 152.339 46.2022V46.2022Z" fill="url(#paint4_linear)"></path>
<path d="M38.3563 115.801L35.0934 127.019H8.55566L11.8185 115.801H38.3563Z" fill="#344563"></path>
<path d="M38.3563 115.801H11.8186L10.2959 121.041H36.8337L38.3563 115.801Z" fill="url(#paint5_linear)"></path>
<path d="M10.2958 121.041L8.55566 127.019H35.0934L36.8336 121.041H10.2958Z" fill="url(#paint6_linear)"></path>
<path d="M10.5863 121.041C9.47095 121.041 8.40128 121.492 7.6126 122.295C6.82393 123.098 6.38086 124.186 6.38086 125.322V149.087L12.3265 152.334C12.8312 152.623 13.2637 153.026 13.5907 153.513C13.9176 153.999 14.1301 154.556 14.2117 155.139L14.9368 160.601C15.0584 161.494 15.4913 162.314 16.1567 162.91C16.8222 163.506 17.6758 163.839 18.5621 163.848V163.848C19.4485 163.839 20.3021 163.506 20.9675 162.91C21.6329 162.314 22.0659 161.494 22.1875 160.601L22.8401 155.139C22.9217 154.556 23.1342 153.999 23.4611 153.513C23.788 153.026 24.2206 152.623 24.7253 152.334L30.7434 149.087V125.322C30.7434 124.186 31.1865 123.098 31.9751 122.295C32.7638 121.492 33.8335 121.041 34.9488 121.041H10.5863Z" fill="url(#paint7_linear)"></path>
<path d="M10.2235 134.474C10.4491 134.075 10.7781 133.747 11.1746 133.525C11.571 133.304 12.0196 133.198 12.4713 133.219C12.9324 133.201 13.3902 133.307 13.7978 133.527C14.2054 133.748 14.5483 134.074 14.7915 134.474C15.2681 135.217 15.4969 136.097 15.4441 136.983C15.4869 137.868 15.2589 138.745 14.7915 139.492C14.5449 139.883 14.1992 140.2 13.7908 140.407C13.3825 140.615 12.9266 140.707 12.4713 140.673C12.0256 140.71 11.5788 140.619 11.1816 140.41C10.7843 140.201 10.4524 139.883 10.2235 139.492C9.75608 138.745 9.52807 137.868 9.57095 136.983C9.51808 136.097 9.74689 135.217 10.2235 134.474V134.474ZM11.4561 138.754C11.5526 138.941 11.6993 139.096 11.8791 139.2C12.059 139.305 12.2644 139.355 12.4713 139.345C12.6899 139.37 12.911 139.327 13.1052 139.221C13.2994 139.116 13.4576 138.953 13.5589 138.754C13.8544 138.215 13.9809 137.597 13.9214 136.983C13.9699 136.346 13.8444 135.707 13.5589 135.138C13.4444 134.951 13.2837 134.798 13.0928 134.694C12.9019 134.591 12.6875 134.54 12.4713 134.547C12.2673 134.553 12.0677 134.609 11.8905 134.712C11.7134 134.815 11.5641 134.962 11.4561 135.138C11.1706 135.707 11.0451 136.346 11.0936 136.983C11.0341 137.597 11.1606 138.215 11.4561 138.754V138.754Z" fill="#5E6C84"></path>
<path d="M16.8943 134.474C17.1376 134.074 17.4805 133.748 17.888 133.527C18.2956 133.307 18.7534 133.2 19.2146 133.219C19.6745 133.208 20.1296 133.318 20.5359 133.537C20.9422 133.757 21.2862 134.079 21.5348 134.474C21.9566 135.238 22.1577 136.108 22.1149 136.983C22.1464 137.857 21.946 138.724 21.5348 139.492C21.2827 139.878 20.936 140.19 20.529 140.397C20.122 140.604 19.6689 140.699 19.2146 140.673C18.7592 140.707 18.3034 140.615 17.895 140.407C17.4867 140.199 17.1409 139.883 16.8943 139.492C16.4831 138.724 16.2827 137.857 16.3143 136.983C16.2714 136.108 16.4725 135.238 16.8943 134.474V134.474ZM18.1269 138.754C18.2354 138.947 18.395 139.104 18.5873 139.209C18.7797 139.313 18.9971 139.36 19.2146 139.345C19.4214 139.355 19.6269 139.305 19.8067 139.2C19.9865 139.096 20.1333 138.941 20.2297 138.754C20.5549 138.225 20.7072 137.605 20.6647 136.983C20.6949 136.338 20.544 135.698 20.2297 135.138C20.1217 134.962 19.9724 134.815 19.7953 134.712C19.6181 134.609 19.4186 134.553 19.2146 134.547C19.0007 134.553 18.791 134.609 18.6023 134.712C18.4135 134.814 18.2507 134.96 18.1269 135.138C17.8732 135.718 17.7493 136.348 17.7644 136.983C17.742 137.595 17.8664 138.203 18.1269 138.754V138.754Z" fill="#5E6C84"></path>
<path d="M24.5078 140.526V135.728H22.7676V134.769C23.1841 134.802 23.5992 134.689 23.9427 134.447C24.2863 134.204 24.5371 133.849 24.6528 133.44H25.9579V140.526H24.5078Z" fill="#5E6C84"></path>
</g>
<defs>
<linearGradient id="paint0_linear" x1="121.305" y1="172.993" x2="121.305" y2="0" gradientUnits="userSpaceOnUse">
<stop stop-color="#42526E" stop-opacity="0"></stop>
<stop offset="0.06" stop-color="#374865" stop-opacity="0.26"></stop>
<stop offset="0.15" stop-color="#293B5B" stop-opacity="0.59"></stop>
<stop offset="0.25" stop-color="#1F3253" stop-opacity="0.82"></stop>
<stop offset="0.35" stop-color="#192D4E" stop-opacity="0.96"></stop>
<stop offset="0.47" stop-color="#172B4D"></stop>
<stop offset="0.61" stop-color="#192D4E" stop-opacity="0.96"></stop>
<stop offset="0.73" stop-color="#1E3152" stop-opacity="0.83"></stop>
<stop offset="0.83" stop-color="#273A59" stop-opacity="0.62"></stop>
<stop offset="0.92" stop-color="#344563" stop-opacity="0.32"></stop>
<stop offset="1" stop-color="#42526E" stop-opacity="0"></stop>
</linearGradient>
<linearGradient id="paint1_linear" x1="86.9005" y1="136.902" x2="136.619" y2="136.902" gradientUnits="userSpaceOnUse">
<stop stop-color="#DE350B"></stop>
<stop offset="0.65" stop-color="#FF5630"></stop>
<stop offset="1" stop-color="#FFBDAD"></stop>
</linearGradient>
<linearGradient id="paint2_linear" x1="84.0072" y1="134.857" x2="84.0072" y2="31.9357" gradientUnits="userSpaceOnUse">
<stop stop-color="#DE350B"></stop>
<stop offset="0.01" stop-color="#E33A11"></stop>
<stop offset="0.03" stop-color="#F14820"></stop>
<stop offset="0.04" stop-color="#FF5630"></stop>
<stop offset="0.15" stop-color="#FD542E"></stop>
<stop offset="0.19" stop-color="#F74E27"></stop>
<stop offset="0.22" stop-color="#ED441C"></stop>
<stop offset="0.25" stop-color="#DE350B"></stop>
<stop offset="0.4" stop-color="#DE350B"></stop>
<stop offset="0.47" stop-color="#ED441C"></stop>
<stop offset="0.55" stop-color="#F74E27"></stop>
<stop offset="0.67" stop-color="#FD542E"></stop>
<stop offset="1" stop-color="#FF5630"></stop>
</linearGradient>
<linearGradient id="paint3_linear" x1="54.3302" y1="147.574" x2="154.919" y2="48.7545" gradientUnits="userSpaceOnUse">
<stop stop-color="#DE350B"></stop>
<stop offset="0.32" stop-color="#FF5630"></stop>
<stop offset="1" stop-color="#FFBDAD"></stop>
</linearGradient>
<linearGradient id="paint4_linear" x1="83.5725" y1="76.7429" x2="160.222" y2="152.052" gradientUnits="userSpaceOnUse">
<stop offset="0.15" stop-color="#DE350B"></stop>
<stop offset="0.16" stop-color="#DE350B" stop-opacity="0.9"></stop>
<stop offset="0.19" stop-color="#DE350B" stop-opacity="0.66"></stop>
<stop offset="0.23" stop-color="#DE350B" stop-opacity="0.46"></stop>
<stop offset="0.26" stop-color="#DE350B" stop-opacity="0.29"></stop>
<stop offset="0.29" stop-color="#DE350B" stop-opacity="0.16"></stop>
<stop offset="0.32" stop-color="#DE350B" stop-opacity="0.07"></stop>
<stop offset="0.36" stop-color="#DE350B" stop-opacity="0.02"></stop>
<stop offset="0.39" stop-color="#DE350B" stop-opacity="0"></stop>
</linearGradient>
<linearGradient id="paint5_linear" x1="24.3261" y1="121.019" x2="24.3261" y2="115.793" gradientUnits="userSpaceOnUse">
<stop offset="0.25" stop-color="#172B4D"></stop>
<stop offset="0.46" stop-color="#1D3051"></stop>
<stop offset="0.74" stop-color="#2C3E5D"></stop>
<stop offset="1" stop-color="#42526E"></stop>
</linearGradient>
<linearGradient id="paint6_linear" x1="22.6946" y1="127.004" x2="22.6946" y2="121.019" gradientUnits="userSpaceOnUse">
<stop stop-color="#6C798F"></stop>
<stop offset="0.25" stop-color="#57667F"></stop>
<stop offset="0.53" stop-color="#485772"></stop>
<stop offset="0.75" stop-color="#42526E"></stop>
</linearGradient>
<linearGradient id="paint7_linear" x1="20.6431" y1="163.848" x2="20.6431" y2="121.019" gradientUnits="userSpaceOnUse">
<stop offset="0.36" stop-color="#DFE1E5"></stop>
<stop offset="1" stop-color="#FAFBFC"></stop>
</linearGradient>
<clipPath id="clip0">
<rect width="168" height="173" fill="white"></rect>
</clipPath>
</defs>
</svg>
