<svg xmlns="http://www.w3.org/2000/svg" width="512" height="512" id="ticket"><path fill="#FFC035" d="m476.3 202.36-74.74 74.74-199.21 199.2c-4.69 4.7-12.31 4.69-17.01 0l-28.47-28.48c25.59-25.59 25.6-67.09 0-92.69a64.31 64.31 0 0 0-3.55-3.29c-25.75-22.25-64.7-21.15-89.14 3.29L35.7 326.66c-4.69-4.7-4.7-12.32 0-17.01l74.75-74.74L309.65 35.7c4.69-4.7 12.31-4.69 17.01 0l28.47 28.48c-25.59 25.59-25.59 67.09 0 92.69 25.6 25.6 67.1 25.59 92.69 0l28.48 28.47c4.69 4.7 4.7 12.32 0 17.02z"></path><path fill="none" d="M110.45 234.91 309.65 35.7c4.69-4.7 12.31-4.69 17.01 0l28.47 28.48c-25.59 25.59-25.59 67.09 0 92.69 25.6 25.6 67.1 25.59 92.69 0l28.48 28.47c4.69 4.7 4.7 12.32 0 17.02l-74.74 74.74-199.21 199.2c-4.69 4.7-12.31 4.69-17.01 0l-28.47-28.48c25.59-25.59 25.6-67.09 0-92.69-25.6-25.59-67.1-25.59-92.69 0L35.7 326.66c-4.69-4.7-4.7-12.32 0-17.01l74.75-74.74z"></path><path fill="#C98B0E" d="M249.98 378.44a3.99 3.99 0 0 1-2.829-1.172l-139.53-139.53a4.006 4.006 0 0 1-.005-5.662 3.993 3.993 0 0 1 5.652-.005l139.54 139.541a4 4 0 0 1-2.828 6.828zM401.56 281.1a3.987 3.987 0 0 1-2.828-1.172l-139.54-139.539a4 4 0 1 1 5.656-5.657l139.54 139.54a3.997 3.997 0 0 1 0 5.656 3.988 3.988 0 0 1-2.828 1.172z"></path><linearGradient id="a" x1="252.58" x2="339.33" y1="252.58" y2="339.33" gradientUnits="userSpaceOnUse"><stop offset="0"></stop><stop offset="1" stop-color="#FFF" stop-opacity="0"></stop></linearGradient><path fill="url(#a)" d="m476.3 202.36-74.74 74.74-199.21 199.2c-4.69 4.7-12.31 4.69-17.01 0l-28.47-28.48c25.59-25.59 25.6-67.09 0-92.69a64.31 64.31 0 0 0-3.55-3.29l201.81-194.97c25.6 25.6 67.1 25.59 92.69 0l28.48 28.47c4.69 4.7 4.7 12.32 0 17.02z" opacity=".2"></path></svg>